<?xml version="1.0" encoding="UTF-8"?>
<svg width="35px" height="23px" viewBox="0 0 35 23" version="1.1" xmlns="http://www.w3.org/2000/svg" xmlns:xlink="http://www.w3.org/1999/xlink">
    <!-- Generator: Sketch 52.5 (67469) - http://www.bohemiancoding.com/sketch -->
    <title>Fill 1</title>
    <desc>Created with Sketch.</desc>
    <g id="190327" stroke="none" stroke-width="1" fill="none" fill-rule="evenodd">
        <g id="Tanadi_Transactions_Pots_Empty-Status" transform="translate(-220.000000, -362.000000)" fill="#ECF1FE">
            <g id="imgPot" transform="translate(121.000000, 286.000000)">
                <path d="M127.8,98.27487 L104.4,98.27487 C101.4183,98.27487 99,95.85657 99,92.87487 C99,89.89317 101.4183,87.47487 104.4,87.47487 C104.4,84.49317 106.8183,82.07487 109.8,82.07487 C109.8,79.09317 112.2183,76.67487 115.2,76.67487 C118.044,76.67487 120.375,78.87357 120.5838,81.66357 C121.5423,80.80047 122.8095,80.27487 124.2,80.27487 C127.1817,80.27487 129.6,82.69317 129.6,85.67487 C129.6,86.37687 129.4668,87.04827 129.222,87.66387 C131.5143,88.28757 133.2,90.38457 133.2,92.87487 C133.2,95.85657 130.7817,98.27487 127.8,98.27487" id="Fill-1"></path>
            </g>
        </g>
    </g>
</svg>