<svg xmlns="http://www.w3.org/2000/svg" width="15" height="12" viewBox="0 0 15 12">
	                        <path d="M10.962 7.201l-3.46 3.601-3.461-3.6h2.307V3.6h2.307v3.6h2.307zM7.502 0C5.136 0 3.218 2.21 3.218 4.788c-.902.04-1.751.456-2.355 1.154C.26 6.64-.05 7.562.006 8.499c.019.95.4 1.854 1.06 2.51.66.658 1.546 1.014 2.459.99h7.956c.914.024 1.798-.332 2.459-.99.66-.656 1.042-1.56 1.06-2.51.002-2.008-1.532-3.653-3.46-3.711C11.54 2.21 9.865 0 7.5 0z" fill="#a2a5c7"></path>
	                      </svg>