<?xml version="1.0" encoding="utf-8"?>
<!-- Generator: Adobe Illustrator 15.0.0, SVG Export Plug-In . SVG Version: 6.00 Build 0)  -->
<!DOCTYPE svg PUBLIC "-//W3C//DTD SVG 1.1//EN" "http://www.w3.org/Graphics/SVG/1.1/DTD/svg11.dtd">
<svg version="1.1" id="Layer_1" xmlns="http://www.w3.org/2000/svg" xmlns:xlink="http://www.w3.org/1999/xlink" x="0px" y="0px"
	 width="21.911px" height="15.969px" viewBox="-0.163 3.989 21.911 15.969" enable-background="new -0.163 3.989 21.911 15.969"
	 xml:space="preserve">
<g>
	<path fill="none" stroke="#767676" stroke-width="1.355" stroke-linecap="round" stroke-linejoin="round" d="M13.57,11.803
		l3.813,3.578 M4.199,15.38l3.814-3.577 M19.413,19.28H2.17c-0.915-0.001-1.656-0.743-1.656-1.659V6.324
		c0-0.915,0.744-1.658,1.657-1.658h17.242c0.914,0,1.657,0.743,1.657,1.658v11.297C21.07,18.536,20.327,19.279,19.413,19.28
		L19.413,19.28z"/>
	<path fill="none" stroke="#767676" stroke-width="1.355" stroke-linecap="round" stroke-linejoin="round" d="M20.51,5.787
		l-8.501,7.412c-0.339,0.288-0.772,0.444-1.217,0.439c-0.44,0-0.881-0.147-1.216-0.439L1.063,5.774"/>
</g>
</svg>
