<?xml version="1.0" encoding="utf-8"?>
<!-- Generator: Adobe Illustrator 15.0.0, SVG Export Plug-In . SVG Version: 6.00 Build 0)  -->
<!DOCTYPE svg PUBLIC "-//W3C//DTD SVG 1.1//EN" "http://www.w3.org/Graphics/SVG/1.1/DTD/svg11.dtd">
<svg version="1.1" id="Layer_1" xmlns="http://www.w3.org/2000/svg" xmlns:xlink="http://www.w3.org/1999/xlink" x="0px" y="0px"
	 width="34px" height="34px" viewBox="0 0 34 34" enable-background="new 0 0 34 34" xml:space="preserve">
<g id="Retailers">
	<g id="retailer_details" transform="translate(-1820.000000, -362.000000)">
		<g id="Group-8-Copy-3" transform="translate(1774.000000, 363.000000)">
			<g id="ic_Delete" transform="translate(47.000000, 0.000000)">
				<g id="Group-2">
					<circle id="Oval-Copy" fill="none" stroke="#00A3DA" stroke-width="0.576" cx="16" cy="16" r="16.154"/>
					<g id="forbidden_x28_1_x29_" transform="translate(6.000000, 6.000000)">
						<path id="Combined-Shape" fill="#00A3DA" d="M16.314,3.239c1.746,1.746,2.709,4.069,2.709,6.538
							c0,2.47-0.963,4.792-2.709,6.539s-4.068,2.708-6.537,2.708c-2.47,0-4.793-0.962-6.539-2.708
							C1.493,14.569,0.53,12.247,0.53,9.777c0-2.469,0.962-4.792,2.708-6.538C4.984,1.493,7.308,0.53,9.777,0.53
							C12.246,0.53,14.568,1.493,16.314,3.239z M1.884,9.777c0,1.76,0.573,3.436,1.638,4.812L14.588,3.522
							c-1.375-1.064-3.051-1.638-4.811-1.638c-2.109,0-4.09,0.82-5.582,2.312C2.705,5.688,1.884,7.668,1.884,9.777z M17.67,9.777
							c0-1.759-0.574-3.435-1.639-4.812L4.965,16.032c1.377,1.064,3.052,1.638,4.813,1.638c2.109,0,4.088-0.82,5.58-2.312
							C16.85,13.866,17.67,11.887,17.67,9.777z"/>
					</g>
				</g>
			</g>
		</g>
	</g>
</g>
</svg>
