<?xml version="1.0" encoding="UTF-8"?>
<svg width="13px" height="15px" viewBox="0 0 13 15" version="1.1" xmlns="http://www.w3.org/2000/svg" xmlns:xlink="http://www.w3.org/1999/xlink">
    <!-- Generator: Sketch 61 (89581) - https://sketch.com -->
    <title>contract</title>
    <desc>Created with Sketch.</desc>
    <g id="Page-1" stroke="none" stroke-width="1" fill="none" fill-rule="evenodd">
        <g id="Tanadi_Admin_Transactions_2" transform="translate(-26.000000, -631.000000)" fill="#8D67AE" fill-rule="nonzero">
            <g id="contract" transform="translate(26.000000, 631.000000)">
                <path d="M9.01475024,9.06596492 C8.77814141,8.84396432 8.41707768,8.65391578 7.91142713,8.48387036 L7.91142713,6.60913564 C8.02731168,6.63946173 8.12652607,6.68657683 8.20597824,6.75078344 C8.36400874,6.88403674 8.44631769,7.08055131 8.45750956,7.34448662 C8.45750956,7.5022806 8.50281477,7.63360543 8.59315632,7.73490667 C8.75606016,7.91720353 9.05834139,7.90880903 9.19802126,7.73297821 C9.28634626,7.63197947 9.33108012,7.50031432 9.33108012,7.34448662 C9.33108012,6.84822775 9.17735159,6.44067837 8.87278494,6.13061111 C8.62041339,5.87926756 8.29719363,5.72404487 7.91115826,5.67114437 L7.91115826,5.44237523 C7.91115826,5.17390236 7.7540016,5 7.51077175,5 C7.27214637,5 7.11784649,5.17390236 7.11784649,5.44237523 L7.11784649,5.6692159 C6.73009705,5.7192426 6.40028988,5.87442749 6.1361215,6.12868264 C5.7919632,6.4662022 5.61759862,6.91598879 5.61759862,7.46809758 C5.61759862,7.95112187 5.77562912,8.34641981 6.08594295,8.64325249 C6.32426585,8.8739501 6.66183674,9.05431849 7.11784649,9.19244967 L7.11784649,11.2201005 C6.91965298,11.1729854 6.7602109,11.0932754 6.64348612,10.9848653 C6.43843633,10.7893339 6.34063353,10.4989294 6.34463303,10.0952748 C6.34463303,9.94039241 6.3021846,9.8097104 6.22562282,9.72387471 C6.07475108,9.53382616 5.7638659,9.53964938 5.62734529,9.71453488 C5.54301979,9.80906758 5.5,9.93653547 5.5,10.0956151 C5.5,10.8319492 5.70249548,11.3850033 6.10341974,11.7415807 C6.35007772,11.9503467 6.69077427,12.0904063 7.11754401,12.1584699 L7.11754401,12.5498731 C7.11754401,12.823186 7.27184389,13 7.51046927,13 C7.7536655,13 7.91085577,12.823186 7.91085577,12.5498731 L7.91085577,12.1668644 C8.31638449,12.0968346 8.66541612,11.9229322 8.95022056,11.6489764 C9.31501491,11.297277 9.5,10.840684 9.5,10.2931128 C9.5,9.77582988 9.33652481,9.36283541 9.01475024,9.06596492 Z M7.1,8.55555556 C6.84171416,8.46521356 6.64904196,8.35822305 6.52528361,8.23811303 C6.37373392,8.08860865 6.3,7.89978722 6.3,7.65886138 C6.3,7.36516685 6.40968898,7.14940059 6.64461271,6.98113031 C6.77540574,6.88759147 6.92808446,6.82029166 7.1,6.77777778 L7.1,8.55555556 Z M8.35440363,11.0074712 C8.22227426,11.1048978 8.07016603,11.1766215 7.9,11.2222222 L7.9,9.44444444 C8.24816992,9.55329032 8.41145862,9.65365767 8.4881851,9.72308989 C8.6288439,9.84629578 8.7,10.055509 8.7,10.342633 C8.70030672,10.6284584 8.59080724,10.8393139 8.35440363,11.0074712 Z" id="Shape"></path>
                <path d="M0.50605,0.892857143 L0.50605,14.6534854 L12.3476497,14.6534854 L12.3476497,0.892857143 L0.50605,0.892857143 Z M11.0732498,13.3790854 L1.78044998,13.3790854 L1.78044998,2.16725712 L11.0732498,2.16725712 L11.0732498,13.3790854 Z" id="Shape"></path>
                <rect id="Rectangle" x="2.55484996" y="4.8606856" width="2.32319994" height="1"></rect>
                <polygon id="Rectangle" points="2.55484996 3.31188564 10.4268499 3.31188564 10.4268499 4.08628562 2.55484996 4.08628562"></polygon>
            </g>
        </g>
    </g>
</svg>