<?xml version="1.0" encoding="UTF-8"?>
<svg width="17px" height="13px" viewBox="0 0 17 13" version="1.1" xmlns="http://www.w3.org/2000/svg" xmlns:xlink="http://www.w3.org/1999/xlink">
    <!-- Generator: Sketch 61 (89581) - https://sketch.com -->
    <title>wifi(1)</title>
    <desc>Created with Sketch.</desc>
    <g id="Page-1" stroke="none" stroke-width="1" fill="none" fill-rule="evenodd">
        <g id="Tanadi_Admin_Transactions_2" transform="translate(-24.000000, -582.000000)" fill="#8D67AE" fill-rule="nonzero">
            <g id="wifi(1)" transform="translate(24.500000, 582.500000)">
                <path d="M7.92666031,9.72162039 C8.55116184,9.72162039 9.05742036,10.2278789 9.05742036,10.8523804 C9.05742036,11.476882 8.55116184,11.9831405 7.92666031,11.9831405 C7.30215879,11.9831405 6.79590027,11.476882 6.79590027,10.8523804 C6.79590027,10.2278789 7.30215879,9.72162039 7.92666031,9.72162039 Z M4.87134019,7.80030031 C6.55614026,6.11550024 9.29718037,6.11550024 10.9787404,7.80354031 C11.3092204,8.13402032 11.3092204,8.67186034 10.9787404,9.00234036 C10.8135004,9.16758036 10.5964204,9.25182037 10.3793404,9.25182037 C10.1622604,9.25182037 9.9451804,9.16758036 9.77994039,9.00234036 C8.75934035,7.97850032 7.09398028,7.97850032 6.07338024,9.00234036 C5.73966023,9.33282037 5.20182021,9.33282037 4.87134019,9.00234036 C4.54086018,8.66862034 4.54086018,8.13078032 4.87134019,7.80030031 Z M2.5774201,5.50638022 C5.52582022,2.5547401 10.3275004,2.5547401 13.2759005,5.50638022 C13.6063805,5.84010023 13.6063805,6.37794025 13.2759005,6.70842027 C13.1106605,6.87366027 12.8935805,6.95790028 12.6765005,6.95790028 C12.4594205,6.95790028 12.2423405,6.87366027 12.0771005,6.70842027 C9.78966039,4.42098018 6.06690024,4.42098018 3.77946015,6.70842027 C3.44574014,7.03890028 2.90790012,7.03890028 2.5774201,6.70842027 C2.24694009,6.37470025 2.24694009,5.83686023 2.5774201,5.50638022 Z M0.24786001,3.17358013 C4.48254018,-1.05786004 11.3707805,-1.05786004 15.6054606,3.17358013 C15.9359406,3.50730014 15.9359406,4.04514016 15.6054606,4.37562017 C15.4402206,4.54086018 15.2231406,4.62510018 15.0060606,4.62510018 C14.7889806,4.62510018 14.5719006,4.54086018 14.4066606,4.37562017 C10.8329404,0.801900032 5.0203802,0.801900032 1.44990006,4.37562017 C1.11618004,4.70610019 0.578340023,4.70610019 0.24786001,4.37562017 C-0.0826200033,4.04190016 -0.0826200033,3.50406014 0.24786001,3.17358013 Z" id="Combined-Shape"></path>
            </g>
        </g>
    </g>
</svg>