<svg xmlns="http://www.w3.org/2000/svg" width="108" height="32" viewBox="0 0 108 32">
    <g fill="none" fill-rule="evenodd">
        <path fill="#74D600" d="M4.383 30.355v1.395H4.15v-1.827h.181l1.141 1.423v-1.42h.234v1.824h-.197zM8.825 31.083a.532.532 0 0 0 .132.353.45.45 0 0 0 .142.105.403.403 0 0 0 .175.039c.062 0 .12-.013.175-.039a.454.454 0 0 0 .144-.106.5.5 0 0 0 .097-.16.548.548 0 0 0-.097-.55.457.457 0 0 0-.144-.107.403.403 0 0 0-.35 0 .463.463 0 0 0-.142.109.543.543 0 0 0-.131.356m.448.693a.668.668 0 0 1-.633-.43.725.725 0 0 1 .142-.754.672.672 0 0 1 .491-.209.675.675 0 0 1 .634.43.72.72 0 0 1-.139.754.68.68 0 0 1-.495.209M16.12 31.75h.234v-1.827h-.234zM20.529 31.75H20.3v-.752c0-.144-.022-.248-.066-.313-.044-.066-.11-.098-.2-.098a.383.383 0 0 0-.14.027.541.541 0 0 0-.242.184.477.477 0 0 0-.07.141v.811h-.228v-1.344h.207v.289a.597.597 0 0 1 .232-.227.667.667 0 0 1 .331-.085c.078 0 .143.015.195.043a.329.329 0 0 1 .124.118.53.53 0 0 1 .066.18c.013.068.02.142.02.223v.803zM24.167 31.683a1.017 1.017 0 0 1-.224.076.587.587 0 0 1-.105.01.348.348 0 0 1-.215-.07c-.061-.045-.091-.115-.091-.212v-.903h-.184v-.178h.184v-.447h.228v.447h.303v.178h-.303v.834c.003.05.02.086.05.108.028.022.063.034.103.034a.335.335 0 0 0 .123-.022.572.572 0 0 0 .077-.035l.054.18zM28.02 30.988a.483.483 0 0 0-.149-.314.46.46 0 0 0-.625.002.454.454 0 0 0-.098.137.502.502 0 0 0-.045.175h.918zm-.464.788a.693.693 0 0 1-.498-.206.723.723 0 0 1 .001-.98.673.673 0 0 1 .5-.207.673.673 0 0 1 .493.207.714.714 0 0 1 .179.565h-1.123c.005.067.02.128.046.183a.47.47 0 0 0 .243.234.424.424 0 0 0 .289.017.543.543 0 0 0 .112-.045.394.394 0 0 0 .092-.07.287.287 0 0 0 .06-.092l.198.054a.493.493 0 0 1-.092.136.6.6 0 0 1-.135.107.695.695 0 0 1-.365.097zM31.802 30.605a.592.592 0 0 0-.303.087.447.447 0 0 0-.185.23v.828h-.228v-1.344h.212v.312a.634.634 0 0 1 .185-.225.46.46 0 0 1 .243-.097h.044c.012 0 .023.001.032.003v.206zM35.655 30.988a.483.483 0 0 0-.15-.314.46.46 0 0 0-.624.002.454.454 0 0 0-.099.137.502.502 0 0 0-.045.175h.918zm-.464.788a.693.693 0 0 1-.498-.206.723.723 0 0 1 .001-.98.673.673 0 0 1 .5-.207.673.673 0 0 1 .492.207.714.714 0 0 1 .179.565h-1.123c.005.067.02.128.047.183a.47.47 0 0 0 .242.234.424.424 0 0 0 .29.017.543.543 0 0 0 .11-.045.394.394 0 0 0 .093-.07.287.287 0 0 0 .061-.092l.197.054a.493.493 0 0 1-.092.136.6.6 0 0 1-.135.107.695.695 0 0 1-.364.097zM39.195 31.776a1.06 1.06 0 0 1-.322-.05.792.792 0 0 1-.272-.146l.098-.152c.08.06.16.105.239.135.08.03.163.045.251.045.1 0 .177-.019.235-.058a.185.185 0 0 0 .087-.163.146.146 0 0 0-.023-.084.198.198 0 0 0-.07-.06.579.579 0 0 0-.12-.046 4.768 4.768 0 0 0-.168-.044 3.317 3.317 0 0 1-.21-.06.561.561 0 0 1-.145-.066.234.234 0 0 1-.084-.093.387.387 0 0 1 .014-.313.377.377 0 0 1 .111-.13.496.496 0 0 1 .165-.08.814.814 0 0 1 .489.022.707.707 0 0 1 .223.128l-.104.136a.58.58 0 0 0-.192-.112.651.651 0 0 0-.218-.037.398.398 0 0 0-.211.053c-.058.035-.087.091-.087.168 0 .031.006.057.017.078.011.02.03.038.055.054.026.015.06.029.1.04.041.013.09.026.147.04.09.02.168.041.235.062a.675.675 0 0 1 .166.076c.044.03.076.064.098.103.022.04.033.088.033.144a.355.355 0 0 1-.146.299.63.63 0 0 1-.391.11M43.297 31.683a1.017 1.017 0 0 1-.224.076.587.587 0 0 1-.105.01.348.348 0 0 1-.215-.07c-.061-.045-.091-.115-.091-.212v-.903h-.184v-.178h.184v-.447h.228v.447h.304v.178h-.304v.834c.003.05.02.086.05.108.029.022.063.034.103.034a.335.335 0 0 0 .123-.022.572.572 0 0 0 .077-.035l.054.18zM46.188 31.958l.176-.228H46.1v-.268h.727v.268l-.263.228h-.376zm-.088-1.253h.64v-.288h-.64v.288zM50.488 31.238a.334.334 0 0 0-.171-.29.253.253 0 0 0-.114-.027h-.659v.628h.64a.275.275 0 0 0 .12-.026.328.328 0 0 0 .16-.167.306.306 0 0 0 .024-.118zm-.944-1.115v.61h.586a.265.265 0 0 0 .204-.09.31.31 0 0 0 .082-.213.351.351 0 0 0-.077-.219.254.254 0 0 0-.193-.088h-.602zm1.18 1.156a.434.434 0 0 1-.16.342.539.539 0 0 1-.17.096.642.642 0 0 1-.21.033h-.873v-1.827h.915c.064 0 .122.013.174.04a.433.433 0 0 1 .132.108.49.49 0 0 1 .114.317.487.487 0 0 1-.068.253.423.423 0 0 1-.196.172.462.462 0 0 1 .342.466zM54.018 31.606a.572.572 0 0 0 .226-.045c.07-.03.124-.07.16-.12.033-.032.05-.066.05-.1v-.198a.943.943 0 0 0-.346-.065.49.49 0 0 0-.278.072c-.072.048-.108.111-.108.188a.254.254 0 0 0 .084.19.323.323 0 0 0 .211.077m-.06.17a.492.492 0 0 1-.178-.031.419.419 0 0 1-.24-.221.393.393 0 0 1 .007-.335.382.382 0 0 1 .118-.13.618.618 0 0 1 .181-.085c.07-.02.147-.031.23-.031a1.14 1.14 0 0 1 .378.067V30.9a.352.352 0 0 0-.093-.26c-.062-.062-.15-.093-.265-.093a.76.76 0 0 0-.43.157l-.075-.147a.942.942 0 0 1 .526-.175c.178 0 .317.048.416.142.1.094.15.227.15.399v.548c0 .053.024.08.072.082v.196a.545.545 0 0 1-.109.01.146.146 0 0 1-.108-.04.164.164 0 0 1-.047-.096l-.006-.095a.585.585 0 0 1-.23.184.709.709 0 0 1-.296.063M61.164 30.888h.558c.048 0 .092-.01.131-.031a.309.309 0 0 0 .1-.084.448.448 0 0 0 .088-.266.42.42 0 0 0-.1-.266.326.326 0 0 0-.106-.083.292.292 0 0 0-.129-.03h-.542v.76zm-.233.862v-1.827h.788c.082 0 .156.016.225.05a.558.558 0 0 1 .176.134.628.628 0 0 1 .157.4.629.629 0 0 1-.105.345.523.523 0 0 1-.122.123.473.473 0 0 1-.16.075l.447.7h-.265l-.42-.656h-.488v.656h-.233zM65.181 31.75h.77v-1.343h-.77v1.343zm0-1.596h.77v-.283h-.77v.283zM69.012 31.58c.067 0 .13-.014.186-.041a.472.472 0 0 0 .244-.269.557.557 0 0 0-.09-.537.45.45 0 0 0-.14-.112.385.385 0 0 0-.317-.016.496.496 0 0 0-.22.167.747.747 0 0 0-.073.12v.39a.272.272 0 0 0 .056.118.458.458 0 0 0 .1.094c.04.027.081.047.125.063a.385.385 0 0 0 .129.023m.057.196a.555.555 0 0 1-.288-.077.587.587 0 0 1-.205-.201v.252h-.202V29.87h.228v.803a.702.702 0 0 1 .21-.21.527.527 0 0 1 .29-.08c.094 0 .178.02.252.059.074.039.138.09.19.155a.7.7 0 0 1 .122.224.818.818 0 0 1 .043.261.733.733 0 0 1-.184.488.637.637 0 0 1-.203.15.588.588 0 0 1-.253.055M72.992 31.606a.572.572 0 0 0 .227-.045c.07-.03.123-.07.16-.12.032-.032.049-.066.049-.1v-.198a.942.942 0 0 0-.345-.065.491.491 0 0 0-.279.072.218.218 0 0 0-.107.188.254.254 0 0 0 .083.19.323.323 0 0 0 .211.077m-.059.17a.49.49 0 0 1-.179-.031.444.444 0 0 1-.24-.222.393.393 0 0 1 .007-.334.383.383 0 0 1 .118-.13.613.613 0 0 1 .182-.085c.07-.02.146-.031.229-.031a1.137 1.137 0 0 1 .379.067V30.9a.352.352 0 0 0-.094-.26.358.358 0 0 0-.264-.093.76.76 0 0 0-.43.157l-.076-.147a.942.942 0 0 1 .527-.175c.178 0 .316.048.416.142.1.094.149.227.149.399v.548c0 .053.024.08.072.082v.196a.533.533 0 0 1-.109.01.146.146 0 0 1-.107-.04.163.163 0 0 1-.048-.096l-.005-.095a.583.583 0 0 1-.23.184.707.707 0 0 1-.297.063M82.436 6.077L95.72 2.478l-.703-1.41a1.878 1.878 0 0 0-2.507-.84L80.618 6.077h1.818z"/>
        <path fill="#287CED" d="M99.843 2.582c-.165 0-.33.023-.494.067l-3.12.847-9.53 2.58h15.531l-.584-2.123a1.866 1.866 0 0 0-1.803-1.37"/>
        <path fill="#741F68" d="M98.851 19.884c0 .512-.419.928-.935.928h-.621a.932.932 0 0 1-.936-.928v-.616c0-.298.139-.561.36-.729.16-.122.359-.2.576-.2h.621c.516 0 .935.416.935.929v.616zm8.509-3.806a1.871 1.871 0 0 0-1.261-.487H94.945c-1.033 0-1.871.832-1.871 1.857v4.133c0 1.025.838 1.857 1.87 1.857H106.1c.213 0 .415-.037.606-.1.247-.082.468-.216.655-.387.374-.338.61-.828.61-1.37v-4.133c0-.542-.236-1.033-.61-1.37z"/>
        <path fill="#670780" d="M80.706 26.371a.921.921 0 0 1-.925.918h-2.372a.921.921 0 0 1-.925-.918V12.657c0-.507.414-.917.925-.917h2.372c.51 0 .925.41.925.917v13.714zm11.058-7.063v-1.853c0-.854.345-1.63.902-2.198a3.158 3.158 0 0 1 2.275-.955h11.105V9.233a1.859 1.859 0 0 0-1.867-1.857H76.524a1.873 1.873 0 0 0-1.807 1.37c-.041.157-.067.32-.067.487v20.689c0 1.025.838 1.856 1.87 1.856h27.656c1.032 0 1.87-.831 1.87-1.856v-5.18H94.945c-1.755 0-3.18-1.416-3.18-3.157v-2.277z"/>
        <path fill="#287CED" d="M10.575 14.992H6.522v11.38H4.15v-11.38H.078v-2.354h10.497zM25.717 26.371h-2.61l-1.067-2.354-1.068-2.354-2.807-6.16-2.807 6.16h3.598l1.068 2.354H14.29l-1.068 2.354h-2.61l6.248-13.733h2.609zM39.475 12.618v13.734h-2.57l-5.555-9.398v9.398h-2.372V12.618h2.57l5.555 9.398v-9.398zM57.839 26.371h-2.61l-1.067-2.354-1.067-2.354-2.807-6.16-2.807 6.16h3.597l1.068 2.354h-5.733l-1.067 2.354h-2.61l6.247-13.733h2.61zM69.522 13.178c.843.36 1.578.85 2.204 1.471a6.937 6.937 0 0 1 1.482 2.187c.363.838.544 1.727.544 2.669s-.181 1.831-.544 2.668a6.928 6.928 0 0 1-1.482 2.187 6.99 6.99 0 0 1-2.204 1.472c-.844.36-1.74.54-2.689.54h-2.451l.969-2.355h1.482c.606 0 1.186-.114 1.74-.343a4.717 4.717 0 0 0 1.482-.971 4.72 4.72 0 0 0 .979-1.462c.23-.543.346-1.121.346-1.736 0-.602-.116-1.177-.346-1.727a4.684 4.684 0 0 0-.979-1.471 4.729 4.729 0 0 0-1.482-.971 4.511 4.511 0 0 0-1.74-.344h-3.36V26.371H61.1V12.638h5.732c.95 0 1.845.18 2.689.54M77.409 26.371h2.372V12.657h-2.372z"/>
        <path fill="#74D600" d="M94.262 28.787l-.315-.88-.314.88h.629zm.086.234h-.801l-.145.409h-.328l.699-1.855h.352l.696 1.855h-.328l-.145-.409zM97.036 29.185a.486.486 0 0 1-.205.191.715.715 0 0 1-.336.072.844.844 0 0 1-.346-.068.599.599 0 0 1-.245-.19.538.538 0 0 1-.105-.283h.328a.334.334 0 0 0 .106.21.348.348 0 0 0 .249.088c.093 0 .165-.024.216-.074a.257.257 0 0 0 .077-.193.247.247 0 0 0-.057-.166.393.393 0 0 0-.14-.103 2.418 2.418 0 0 0-.228-.085 2.029 2.029 0 0 1-.289-.112.463.463 0 0 1-.268-.443c0-.101.026-.19.076-.267a.491.491 0 0 1 .215-.177.783.783 0 0 1 .323-.063c.193 0 .347.047.46.139a.523.523 0 0 1 .196.363h-.331a.317.317 0 0 0-.101-.183.316.316 0 0 0-.224-.076.311.311 0 0 0-.207.065c-.052.044-.078.107-.078.188 0 .064.018.118.053.159a.376.376 0 0 0 .136.099c.055.024.13.052.225.084.12.037.218.075.294.113a.48.48 0 0 1 .273.455.513.513 0 0 1-.067.257M98.508 27.546v1.118c0 .167.037.291.112.373a.401.401 0 0 0 .313.123c.133 0 .236-.04.31-.123.075-.082.112-.206.112-.373v-1.118h.306v1.118c0 .258-.067.453-.202.586a.725.725 0 0 1-.531.198.713.713 0 0 1-.527-.198c-.133-.133-.2-.328-.2-.586v-1.118h.307zM102.005 29.185a.485.485 0 0 1-.205.191.716.716 0 0 1-.335.072.846.846 0 0 1-.347-.068.602.602 0 0 1-.245-.19.542.542 0 0 1-.105-.283h.328a.334.334 0 0 0 .107.21.347.347 0 0 0 .248.088.297.297 0 0 0 .216-.074.257.257 0 0 0 .077-.193.246.246 0 0 0-.056-.166.398.398 0 0 0-.14-.103 2.461 2.461 0 0 0-.229-.085 2.04 2.04 0 0 1-.289-.112.463.463 0 0 1-.267-.443c0-.101.025-.19.076-.267a.488.488 0 0 1 .214-.177.783.783 0 0 1 .323-.063c.193 0 .347.047.46.139a.522.522 0 0 1 .196.363h-.33a.32.32 0 0 0-.102-.183.318.318 0 0 0-.224-.076.31.31 0 0 0-.207.065c-.052.044-.078.107-.078.188 0 .064.018.118.054.159.036.042.08.075.135.099.055.024.13.052.225.084.12.037.218.075.294.113.076.038.14.094.194.167a.48.48 0 0 1 .079.288.513.513 0 0 1-.067.257M103.477 27.546v1.118c0 .167.038.291.112.373a.4.4 0 0 0 .313.123c.133 0 .236-.04.31-.123.075-.082.112-.206.112-.373v-1.118h.306v1.118c0 .258-.067.453-.201.586a.726.726 0 0 1-.532.198.713.713 0 0 1-.527-.198c-.133-.133-.199-.328-.199-.586v-1.118h.306z"/>
    </g>
</svg>
