<?xml version="1.0" encoding="utf-8"?>
<!-- Generator: Adobe Illustrator 15.0.0, SVG Export Plug-In . SVG Version: 6.00 Build 0)  -->
<!DOCTYPE svg PUBLIC "-//W3C//DTD SVG 1.1//EN" "http://www.w3.org/Graphics/SVG/1.1/DTD/svg11.dtd">
<svg version="1.1" id="Layer_1" xmlns="http://www.w3.org/2000/svg" xmlns:xlink="http://www.w3.org/1999/xlink" x="0px" y="0px"
	 width="17.792px" height="21.561px" viewBox="0.02 12.72 17.792 21.561" enable-background="new 0.02 12.72 17.792 21.561"
	 xml:space="preserve">
<path fill="none" stroke="#767676" stroke-width="1.4" d="M2.196,33.58h13.437c0.815-0.002,1.475-0.662,1.479-1.477v-8.871
	c0-0.813-0.665-1.476-1.479-1.476h-1.039v-2.658c0-3.13-2.549-5.679-5.679-5.679s-5.68,2.549-5.68,5.679v2.658H2.197
	c-0.813,0-1.477,0.663-1.477,1.476v8.871C0.72,32.914,1.384,33.58,2.196,33.58z M14.129,21.757H3.701H14.129L14.129,21.757z
	 M8.916,26.764c0.576,0,1.048,0.469,1.048,1.047c0,0.576-0.471,1.048-1.049,1.048c-0.578-0.001-1.047-0.47-1.049-1.048
	C7.866,27.232,8.337,26.764,8.916,26.764L8.916,26.764z"/>
</svg>
