<svg xmlns="http://www.w3.org/2000/svg" width="21" height="21" viewBox="0 0 21 21">
    <g fill="none" fill-rule="nonzero">
        <path stroke="#287CED" stroke-width="1.32" d="M10.5 11.813a3.938 3.938 0 1 0 0-7.876 3.938 3.938 0 0 0 0 7.876zm6.476 6.044c-.51-3.428-3.215-6.044-6.476-6.044-3.171 0-5.817 2.474-6.429 5.763"/>
        <path fill="#287CED" d="M10.5 21C4.701 21 0 16.299 0 10.5S4.701 0 10.5 0 21 4.701 21 10.5 16.299 21 10.5 21zm0-1.313a9.188 9.188 0 1 0 0-18.375 9.188 9.188 0 0 0 0 18.375z"/>
    </g>
</svg>